<svg xmlns="http://www.w3.org/2000/svg" viewBox="0 0 96 96">
  <rect x="10" y="12" width="32" height="72" rx="4" fill="#1e293b"/>
  <rect x="54" y="12" width="32" height="72" rx="4" fill="#1e293b"/>
  <rect x="16" y="20" width="20" height="6" rx="2" fill="#60a5fa"/>
  <rect x="16" y="32" width="20" height="6" rx="2" fill="#60a5fa"/>
  <rect x="16" y="44" width="20" height="6" rx="2" fill="#60a5fa"/>
  <rect x="16" y="56" width="20" height="6" rx="2" fill="#60a5fa"/>
  <rect x="16" y="68" width="20" height="6" rx="2" fill="#60a5fa"/>
  <rect x="60" y="20" width="20" height="6" rx="2" fill="#38bdf8"/>
  <rect x="60" y="32" width="20" height="6" rx="2" fill="#38bdf8"/>
  <rect x="60" y="44" width="20" height="6" rx="2" fill="#38bdf8"/>
  <rect x="60" y="56" width="20" height="6" rx="2" fill="#38bdf8"/>
  <rect x="60" y="68" width="20" height="6" rx="2" fill="#38bdf8"/>
</svg>
